{"title":"Sleepaway Camp 3 Teenage Wasteland 1989 720p fiveofseven zombiRG","uid":15343514,"size":1098695850,"categoryP":"video","categoryS":"hd___movies","magnet":"?xt=urn:btih:f350390cb6fcc423591721ccbe7b0e8f4d7bb5d8&amp;dn=Sleepaway+Camp+3+Teenage+Wasteland+1989+720p+fiveofseven+zombiRG&amp;tr=udp%3A%2F%2Ftracker.leechers-paradise.org%3A6969&amp;tr=udp%3A%2F%2Fzer0day.ch%3A1337&amp;tr=udp%3A%2F%2Fopen.demonii.com%3A1337&amp;tr=udp%3A%2F%2Ftracker.coppersurfer.tk%3A6969&amp;tr=udp%3A%2F%2Fexodus.desync.com%3A6969","seeders":1,"leechers":0,"uploader":"fiveofseven","files":3,"time":1468868675,"description":"\nPLOT - After murdering a young girl, Angela Baker assumes her \r\nidentity and travels to Camp New Horizons, built on the grounds \r\nof the camp she terrorized the year before, and starts killing again.\r\n\r\n\r\nINFO\r\n\r\nEncoder: fiveofseven\r\nSource: Blu-Ray\r\nRating: R\r\nGenre: Comedy, Horror\r\nSubtitles: English\r\nPoster: \r  https://yuq.me/users/25/564/DPeEF9snNv.jpg \r\n\r\nGeneral\r\nComplete name                            : Sleepaway Camp 3 Teenage Wasteland 720p (fiveofseven zombiRG).mp4\r\nFormat                                   : MPEG-4\r\nCodec ID                                 : M4V \r\nFile size                                : 1.02 GiB\r\nDuration                                 : 1h 19mn\r\nOverall bit rate mode                    : Variable\r\nOverall bit rate                         : 1 830 Kbps\r\nEncoded date                             : UTC 2016-06-05 17:50:47\r\nTagged date                              : UTC 2016-06-07 12:56:46\r\nWriting application                      : My MP4Box GUI 0.6.0.6 &lt;http://my-mp4box-gui.zymichost.com&gt;\r\n\r\nVideo\r\nID                                       : 1\r\nFormat                                   : AVC\r\nFormat/Info                              : Advanced Video Codec\r\nFormat profile                           :   \r\nFormat settings, CABAC                   : Yes\r\nFormat settings, ReFrames                : 6 frames\r\nCodec ID                                 : avc1\r\nCodec ID/Info                            : Advanced Video Coding\r\nDuration                                 : 1h 19mn\r\nBit rate                                 : 1 700 Kbps\r\nMaximum bit rate                         : 7 201 Kbps\r\nWidth                                    : 1 280 pixels\r\nHeight                                   : 696 pixels\r\nDisplay aspect ratio                     : 1.85:1\r\nFrame rate mode                          : Constant\r\nFrame rate                               : 23.976 fps\r\nColor space                              : YUV\r\nChroma subsampling                       : 4:2:0\r\nBit depth                                : 8 bits\r\nScan type                                : Progressive\r\nBits/(Pixel*Frame)                       : 0.080\r\nStream size                              : 965 MiB (93%)\r\nTitle                                    : SC3 720p.mp4\r\nWriting library                          : x264 core 148 r2638 7599210\r\nLanguage                                 : English\r\nEncoded date                             : UTC 2016-06-05 16:37:22\r\nTagged date                              : UTC 2016-06-05 17:52:21\r\n\r\nAudio\r\nID                                       : 2\r\nFormat                                   : AAC\r\nFormat/Info                              : Advanced Audio Codec\r\nFormat profile                           : LC\r\nCodec ID                                 : 40\r\nDuration                                 : 1h 19mn\r\nBit rate mode                            : Variable\r\nBit rate                                 : 128 Kbps\r\nMaximum bit rate                         : 135 Kbps\r\nChannel count                            : 2 channels\r\nChannel positions                        : Front: L R\r\nSampling rate                            : 48.0 KHz\r\nCompression mode                         : Lossy\r\nDelay relative to video                  : 83ms\r\nStream size                              : 72.7 MiB (7%)\r\nTitle                                    : aac.mp4\r\nLanguage                                 : English\r\nEncoded date                             : UTC 2016-06-05 17:52:17\r\nTagged date                              : UTC 2016-06-05 17:52:21\r\n\r\n\r\nScreenshots - \r\n  \nhttps://yuq.me/users/25/564/3G0NLeuSbi.jpg \r\n  \nhttps://yuq.me/users/25/564/ptJidzw6IW.jpg \r\n  \nhttps://yuq.me/users/25/564/e4GZ3tCUyJ.jpg \r\n  \nhttps://yuq.me/users/25/564/RCPUN1WXH9.jpg \r\n \r\nsignature \r\n  \nhttps://yuq.me/users/25/564/aegRQCBILx.png","torrent":{"xt":"urn:btih:f350390cb6fcc423591721ccbe7b0e8f4d7bb5d8","amp;dn":"Sleepaway+Camp+3+Teenage+Wasteland+1989+720p+fiveofseven+zombiRG","amp;tr":["udp%3A%2F%2Ftracker.leechers-paradise.org%3A6969","udp%3A%2F%2Fzer0day.ch%3A1337","udp%3A%2F%2Fopen.demonii.com%3A1337","udp%3A%2F%2Ftracker.coppersurfer.tk%3A6969","udp%3A%2F%2Fexodus.desync.com%3A6969"],"infoHash":"f350390cb6fcc423591721ccbe7b0e8f4d7bb5d8","infoHashBuffer":{"type":"Buffer","data":[243,80,57,12,182,252,196,35,89,23,33,204,190,123,14,143,77,123,181,216]},"announce":[],"urlList":[]}}